<mxfile host="app.diagrams.net" modified="2023-02-27T14:10:58.019Z" agent="5.0 (Windows NT 10.0; Win64; x64) AppleWebKit/537.36 (KHTML, like Gecko) Chrome/110.0.0.0 Safari/537.36" etag="Kq3Vu_u62jY7_UMtB5h8" version="20.8.23" type="github">
  <diagram name="Page-1" id="O3QIlHTEBedaoIdS_m7c">
    <mxGraphModel dx="1195" dy="589" grid="1" gridSize="10" guides="1" tooltips="1" connect="1" arrows="1" fold="1" page="1" pageScale="1" pageWidth="850" pageHeight="1100" math="0" shadow="0">
      <root>
        <mxCell id="0" />
        <mxCell id="1" parent="0" />
        <mxCell id="d_FhcBHTKEOxw95VG2s4-4" value="" style="rounded=0;whiteSpace=wrap;html=1;" parent="1" vertex="1">
          <mxGeometry x="320" y="200" width="400" height="30" as="geometry" />
        </mxCell>
        <mxCell id="d_FhcBHTKEOxw95VG2s4-5" value="" style="rounded=0;whiteSpace=wrap;html=1;" parent="1" vertex="1">
          <mxGeometry x="320" y="520" width="400" height="30" as="geometry" />
        </mxCell>
        <mxCell id="d_FhcBHTKEOxw95VG2s4-6" value="" style="rounded=0;whiteSpace=wrap;html=1;" parent="1" vertex="1">
          <mxGeometry x="320" y="360" width="400" height="30" as="geometry" />
        </mxCell>
        <mxCell id="d_FhcBHTKEOxw95VG2s4-7" value="" style="rounded=0;whiteSpace=wrap;html=1;fillColor=#E6E6E6;" parent="1" vertex="1">
          <mxGeometry x="440" y="230" width="10" height="130" as="geometry" />
        </mxCell>
        <mxCell id="d_FhcBHTKEOxw95VG2s4-8" value="" style="rounded=0;whiteSpace=wrap;html=1;" parent="1" vertex="1">
          <mxGeometry x="440" y="390" width="10" height="130" as="geometry" />
        </mxCell>
        <mxCell id="d_FhcBHTKEOxw95VG2s4-9" value="" style="rounded=0;whiteSpace=wrap;html=1;" parent="1" vertex="1">
          <mxGeometry x="320" y="680" width="400" height="30" as="geometry" />
        </mxCell>
        <mxCell id="d_FhcBHTKEOxw95VG2s4-13" value="" style="rounded=0;whiteSpace=wrap;html=1;" parent="1" vertex="1">
          <mxGeometry x="550" y="230" width="10" height="130" as="geometry" />
        </mxCell>
        <mxCell id="d_FhcBHTKEOxw95VG2s4-14" value="" style="rounded=0;whiteSpace=wrap;html=1;" parent="1" vertex="1">
          <mxGeometry x="550" y="390" width="10" height="130" as="geometry" />
        </mxCell>
        <mxCell id="d_FhcBHTKEOxw95VG2s4-15" value="" style="rounded=0;whiteSpace=wrap;html=1;" parent="1" vertex="1">
          <mxGeometry x="550" y="550" width="10" height="130" as="geometry" />
        </mxCell>
        <mxCell id="d_FhcBHTKEOxw95VG2s4-16" value="" style="rounded=0;whiteSpace=wrap;html=1;" parent="1" vertex="1">
          <mxGeometry x="290" y="200" width="30" height="560" as="geometry" />
        </mxCell>
        <mxCell id="d_FhcBHTKEOxw95VG2s4-17" value="" style="rounded=0;whiteSpace=wrap;html=1;" parent="1" vertex="1">
          <mxGeometry x="720" y="200" width="30" height="560" as="geometry" />
        </mxCell>
        <mxCell id="d_FhcBHTKEOxw95VG2s4-18" value="" style="rounded=0;whiteSpace=wrap;html=1;" parent="1" vertex="1">
          <mxGeometry x="290" y="240" width="30" height="85" as="geometry" />
        </mxCell>
        <mxCell id="d_FhcBHTKEOxw95VG2s4-19" value="" style="rounded=0;whiteSpace=wrap;html=1;" parent="1" vertex="1">
          <mxGeometry x="720" y="240" width="30" height="85" as="geometry" />
        </mxCell>
        <mxCell id="d_FhcBHTKEOxw95VG2s4-20" value="" style="rounded=0;whiteSpace=wrap;html=1;" parent="1" vertex="1">
          <mxGeometry x="290" y="400" width="30" height="85" as="geometry" />
        </mxCell>
        <mxCell id="d_FhcBHTKEOxw95VG2s4-21" value="" style="rounded=0;whiteSpace=wrap;html=1;" parent="1" vertex="1">
          <mxGeometry x="720" y="400" width="30" height="85" as="geometry" />
        </mxCell>
        <mxCell id="d_FhcBHTKEOxw95VG2s4-22" value="" style="rounded=0;whiteSpace=wrap;html=1;" parent="1" vertex="1">
          <mxGeometry x="290" y="560" width="30" height="85" as="geometry" />
        </mxCell>
        <mxCell id="d_FhcBHTKEOxw95VG2s4-23" value="" style="rounded=0;whiteSpace=wrap;html=1;" parent="1" vertex="1">
          <mxGeometry x="720" y="560" width="30" height="85" as="geometry" />
        </mxCell>
        <mxCell id="d_FhcBHTKEOxw95VG2s4-24" value="" style="rounded=0;whiteSpace=wrap;html=1;" parent="1" vertex="1">
          <mxGeometry x="320" y="360" width="400" height="5" as="geometry" />
        </mxCell>
        <mxCell id="d_FhcBHTKEOxw95VG2s4-25" value="" style="rounded=0;whiteSpace=wrap;html=1;" parent="1" vertex="1">
          <mxGeometry x="320" y="520" width="400" height="5" as="geometry" />
        </mxCell>
        <mxCell id="d_FhcBHTKEOxw95VG2s4-26" value="" style="rounded=0;whiteSpace=wrap;html=1;" parent="1" vertex="1">
          <mxGeometry x="320" y="680" width="400" height="5" as="geometry" />
        </mxCell>
        <mxCell id="d_FhcBHTKEOxw95VG2s4-30" value="" style="endArrow=none;html=1;rounded=0;entryX=-0.005;entryY=0.857;entryDx=0;entryDy=0;entryPerimeter=0;strokeWidth=2;" parent="1" target="d_FhcBHTKEOxw95VG2s4-16" edge="1">
          <mxGeometry width="50" height="50" relative="1" as="geometry">
            <mxPoint x="180" y="680" as="sourcePoint" />
            <mxPoint x="200" y="685" as="targetPoint" />
          </mxGeometry>
        </mxCell>
        <mxCell id="d_FhcBHTKEOxw95VG2s4-31" value="" style="endArrow=none;html=1;rounded=0;entryX=-0.005;entryY=0.857;entryDx=0;entryDy=0;entryPerimeter=0;strokeWidth=2;" parent="1" edge="1">
          <mxGeometry width="50" height="50" relative="1" as="geometry">
            <mxPoint x="750" y="679.31" as="sourcePoint" />
            <mxPoint x="860" y="679.31" as="targetPoint" />
          </mxGeometry>
        </mxCell>
        <mxCell id="d_FhcBHTKEOxw95VG2s4-37" value="" style="group" parent="1" vertex="1" connectable="0">
          <mxGeometry x="293" y="240" width="5" height="85" as="geometry" />
        </mxCell>
        <mxCell id="d_FhcBHTKEOxw95VG2s4-33" value="" style="endArrow=none;html=1;rounded=0;entryX=0.25;entryY=0;entryDx=0;entryDy=0;exitX=0.25;exitY=1;exitDx=0;exitDy=0;" parent="d_FhcBHTKEOxw95VG2s4-37" edge="1">
          <mxGeometry width="50" height="50" relative="1" as="geometry">
            <mxPoint x="5" y="85" as="sourcePoint" />
            <mxPoint x="5" as="targetPoint" />
          </mxGeometry>
        </mxCell>
        <mxCell id="d_FhcBHTKEOxw95VG2s4-34" value="" style="endArrow=none;html=1;rounded=0;entryX=0.25;entryY=0;entryDx=0;entryDy=0;exitX=0.25;exitY=1;exitDx=0;exitDy=0;" parent="d_FhcBHTKEOxw95VG2s4-37" edge="1">
          <mxGeometry width="50" height="50" relative="1" as="geometry">
            <mxPoint y="85" as="sourcePoint" />
            <mxPoint as="targetPoint" />
          </mxGeometry>
        </mxCell>
        <mxCell id="d_FhcBHTKEOxw95VG2s4-38" value="" style="group" parent="1" vertex="1" connectable="0">
          <mxGeometry x="293" y="400" width="5" height="85" as="geometry" />
        </mxCell>
        <mxCell id="d_FhcBHTKEOxw95VG2s4-39" value="" style="endArrow=none;html=1;rounded=0;entryX=0.25;entryY=0;entryDx=0;entryDy=0;exitX=0.25;exitY=1;exitDx=0;exitDy=0;" parent="d_FhcBHTKEOxw95VG2s4-38" edge="1">
          <mxGeometry width="50" height="50" relative="1" as="geometry">
            <mxPoint x="5" y="85" as="sourcePoint" />
            <mxPoint x="5" as="targetPoint" />
          </mxGeometry>
        </mxCell>
        <mxCell id="d_FhcBHTKEOxw95VG2s4-40" value="" style="endArrow=none;html=1;rounded=0;entryX=0.25;entryY=0;entryDx=0;entryDy=0;exitX=0.25;exitY=1;exitDx=0;exitDy=0;" parent="d_FhcBHTKEOxw95VG2s4-38" edge="1">
          <mxGeometry width="50" height="50" relative="1" as="geometry">
            <mxPoint y="85" as="sourcePoint" />
            <mxPoint as="targetPoint" />
          </mxGeometry>
        </mxCell>
        <mxCell id="d_FhcBHTKEOxw95VG2s4-41" value="" style="group" parent="1" vertex="1" connectable="0">
          <mxGeometry x="293" y="560" width="5" height="85" as="geometry" />
        </mxCell>
        <mxCell id="d_FhcBHTKEOxw95VG2s4-42" value="" style="endArrow=none;html=1;rounded=0;entryX=0.25;entryY=0;entryDx=0;entryDy=0;exitX=0.25;exitY=1;exitDx=0;exitDy=0;" parent="d_FhcBHTKEOxw95VG2s4-41" edge="1">
          <mxGeometry width="50" height="50" relative="1" as="geometry">
            <mxPoint x="5" y="85" as="sourcePoint" />
            <mxPoint x="5" as="targetPoint" />
          </mxGeometry>
        </mxCell>
        <mxCell id="d_FhcBHTKEOxw95VG2s4-43" value="" style="endArrow=none;html=1;rounded=0;entryX=0.25;entryY=0;entryDx=0;entryDy=0;exitX=0.25;exitY=1;exitDx=0;exitDy=0;" parent="d_FhcBHTKEOxw95VG2s4-41" edge="1">
          <mxGeometry width="50" height="50" relative="1" as="geometry">
            <mxPoint y="85" as="sourcePoint" />
            <mxPoint as="targetPoint" />
          </mxGeometry>
        </mxCell>
        <mxCell id="d_FhcBHTKEOxw95VG2s4-44" value="" style="group" parent="1" vertex="1" connectable="0">
          <mxGeometry x="742" y="560" width="5" height="85" as="geometry" />
        </mxCell>
        <mxCell id="d_FhcBHTKEOxw95VG2s4-45" value="" style="endArrow=none;html=1;rounded=0;entryX=0.25;entryY=0;entryDx=0;entryDy=0;exitX=0.25;exitY=1;exitDx=0;exitDy=0;" parent="d_FhcBHTKEOxw95VG2s4-44" edge="1">
          <mxGeometry width="50" height="50" relative="1" as="geometry">
            <mxPoint x="5" y="85" as="sourcePoint" />
            <mxPoint x="5" as="targetPoint" />
          </mxGeometry>
        </mxCell>
        <mxCell id="d_FhcBHTKEOxw95VG2s4-46" value="" style="endArrow=none;html=1;rounded=0;entryX=0.25;entryY=0;entryDx=0;entryDy=0;exitX=0.25;exitY=1;exitDx=0;exitDy=0;" parent="d_FhcBHTKEOxw95VG2s4-44" edge="1">
          <mxGeometry width="50" height="50" relative="1" as="geometry">
            <mxPoint y="85" as="sourcePoint" />
            <mxPoint as="targetPoint" />
          </mxGeometry>
        </mxCell>
        <mxCell id="d_FhcBHTKEOxw95VG2s4-47" value="" style="group" parent="1" vertex="1" connectable="0">
          <mxGeometry x="742" y="400" width="5" height="85" as="geometry" />
        </mxCell>
        <mxCell id="d_FhcBHTKEOxw95VG2s4-48" value="" style="endArrow=none;html=1;rounded=0;entryX=0.25;entryY=0;entryDx=0;entryDy=0;exitX=0.25;exitY=1;exitDx=0;exitDy=0;" parent="d_FhcBHTKEOxw95VG2s4-47" edge="1">
          <mxGeometry width="50" height="50" relative="1" as="geometry">
            <mxPoint x="5" y="85" as="sourcePoint" />
            <mxPoint x="5" as="targetPoint" />
          </mxGeometry>
        </mxCell>
        <mxCell id="d_FhcBHTKEOxw95VG2s4-49" value="" style="endArrow=none;html=1;rounded=0;entryX=0.25;entryY=0;entryDx=0;entryDy=0;exitX=0.25;exitY=1;exitDx=0;exitDy=0;" parent="d_FhcBHTKEOxw95VG2s4-47" edge="1">
          <mxGeometry width="50" height="50" relative="1" as="geometry">
            <mxPoint y="85" as="sourcePoint" />
            <mxPoint as="targetPoint" />
          </mxGeometry>
        </mxCell>
        <mxCell id="d_FhcBHTKEOxw95VG2s4-50" value="" style="group" parent="1" vertex="1" connectable="0">
          <mxGeometry x="742" y="240" width="5" height="85" as="geometry" />
        </mxCell>
        <mxCell id="d_FhcBHTKEOxw95VG2s4-51" value="" style="endArrow=none;html=1;rounded=0;entryX=0.25;entryY=0;entryDx=0;entryDy=0;exitX=0.25;exitY=1;exitDx=0;exitDy=0;" parent="d_FhcBHTKEOxw95VG2s4-50" edge="1">
          <mxGeometry width="50" height="50" relative="1" as="geometry">
            <mxPoint x="5" y="85" as="sourcePoint" />
            <mxPoint x="5" as="targetPoint" />
          </mxGeometry>
        </mxCell>
        <mxCell id="d_FhcBHTKEOxw95VG2s4-52" value="" style="endArrow=none;html=1;rounded=0;entryX=0.25;entryY=0;entryDx=0;entryDy=0;exitX=0.25;exitY=1;exitDx=0;exitDy=0;" parent="d_FhcBHTKEOxw95VG2s4-50" edge="1">
          <mxGeometry width="50" height="50" relative="1" as="geometry">
            <mxPoint y="85" as="sourcePoint" />
            <mxPoint as="targetPoint" />
          </mxGeometry>
        </mxCell>
        <mxCell id="ZUjhNeU1AGEDZr30HRo7-2" value="" style="endArrow=none;html=1;rounded=0;exitX=0;exitY=1;exitDx=0;exitDy=0;entryX=0;entryY=0;entryDx=0;entryDy=0;strokeWidth=2;" parent="d_FhcBHTKEOxw95VG2s4-50" edge="1">
          <mxGeometry width="50" height="50" relative="1" as="geometry">
            <mxPoint x="8" y="520" as="sourcePoint" />
            <mxPoint x="8" y="-40" as="targetPoint" />
          </mxGeometry>
        </mxCell>
        <mxCell id="d_FhcBHTKEOxw95VG2s4-55" value="" style="endArrow=none;dashed=1;html=1;rounded=0;" parent="1" edge="1">
          <mxGeometry width="50" height="50" relative="1" as="geometry">
            <mxPoint x="290" y="200" as="sourcePoint" />
            <mxPoint x="290" y="150" as="targetPoint" />
          </mxGeometry>
        </mxCell>
        <mxCell id="d_FhcBHTKEOxw95VG2s4-56" value="" style="endArrow=none;dashed=1;html=1;rounded=0;" parent="1" edge="1">
          <mxGeometry width="50" height="50" relative="1" as="geometry">
            <mxPoint x="319.31" y="200" as="sourcePoint" />
            <mxPoint x="319.31" y="150" as="targetPoint" />
          </mxGeometry>
        </mxCell>
        <mxCell id="d_FhcBHTKEOxw95VG2s4-57" value="" style="endArrow=none;dashed=1;html=1;rounded=0;" parent="1" edge="1">
          <mxGeometry width="50" height="50" relative="1" as="geometry">
            <mxPoint x="719.31" y="200" as="sourcePoint" />
            <mxPoint x="719.31" y="150" as="targetPoint" />
          </mxGeometry>
        </mxCell>
        <mxCell id="d_FhcBHTKEOxw95VG2s4-58" value="" style="endArrow=none;dashed=1;html=1;rounded=0;" parent="1" edge="1">
          <mxGeometry width="50" height="50" relative="1" as="geometry">
            <mxPoint x="749.31" y="200" as="sourcePoint" />
            <mxPoint x="749.31" y="150" as="targetPoint" />
          </mxGeometry>
        </mxCell>
        <mxCell id="ZUjhNeU1AGEDZr30HRo7-1" value="" style="endArrow=none;html=1;rounded=0;exitX=0;exitY=1;exitDx=0;exitDy=0;entryX=0;entryY=0;entryDx=0;entryDy=0;strokeWidth=2;" parent="1" source="d_FhcBHTKEOxw95VG2s4-16" target="d_FhcBHTKEOxw95VG2s4-16" edge="1">
          <mxGeometry width="50" height="50" relative="1" as="geometry">
            <mxPoint x="250" y="500" as="sourcePoint" />
            <mxPoint x="300" y="450" as="targetPoint" />
          </mxGeometry>
        </mxCell>
        <mxCell id="ZUjhNeU1AGEDZr30HRo7-3" value="" style="endArrow=none;html=1;rounded=0;entryX=0;entryY=0;entryDx=0;entryDy=0;strokeWidth=2;" parent="1" target="d_FhcBHTKEOxw95VG2s4-16" edge="1">
          <mxGeometry width="50" height="50" relative="1" as="geometry">
            <mxPoint x="750" y="200" as="sourcePoint" />
            <mxPoint x="180" y="140" as="targetPoint" />
          </mxGeometry>
        </mxCell>
        <mxCell id="ZUjhNeU1AGEDZr30HRo7-4" value="" style="endArrow=none;html=1;rounded=0;strokeWidth=2;entryX=0;entryY=1;entryDx=0;entryDy=0;" parent="1" target="d_FhcBHTKEOxw95VG2s4-9" edge="1">
          <mxGeometry width="50" height="50" relative="1" as="geometry">
            <mxPoint x="320" y="760" as="sourcePoint" />
            <mxPoint x="380" y="770" as="targetPoint" />
          </mxGeometry>
        </mxCell>
        <mxCell id="ZUjhNeU1AGEDZr30HRo7-5" value="" style="endArrow=none;html=1;rounded=0;strokeWidth=2;entryX=0;entryY=1;entryDx=0;entryDy=0;" parent="1" edge="1">
          <mxGeometry width="50" height="50" relative="1" as="geometry">
            <mxPoint x="719.1700000000001" y="760" as="sourcePoint" />
            <mxPoint x="719.1700000000001" y="710" as="targetPoint" />
          </mxGeometry>
        </mxCell>
        <mxCell id="ZUjhNeU1AGEDZr30HRo7-6" value="" style="endArrow=none;html=1;rounded=0;strokeWidth=2;exitX=1;exitY=1;exitDx=0;exitDy=0;" parent="1" source="d_FhcBHTKEOxw95VG2s4-9" edge="1">
          <mxGeometry width="50" height="50" relative="1" as="geometry">
            <mxPoint x="340" y="780" as="sourcePoint" />
            <mxPoint x="320" y="710" as="targetPoint" />
          </mxGeometry>
        </mxCell>
        <mxCell id="RdezbxoMDy9j4z05kCl0-1" value="" style="endArrow=none;html=1;rounded=0;strokeWidth=2;" edge="1" parent="1">
          <mxGeometry width="50" height="50" relative="1" as="geometry">
            <mxPoint x="320" y="760" as="sourcePoint" />
            <mxPoint x="290" y="760" as="targetPoint" />
          </mxGeometry>
        </mxCell>
        <mxCell id="RdezbxoMDy9j4z05kCl0-2" value="" style="endArrow=none;html=1;rounded=0;strokeWidth=2;" edge="1" parent="1">
          <mxGeometry width="50" height="50" relative="1" as="geometry">
            <mxPoint x="750" y="760" as="sourcePoint" />
            <mxPoint x="720" y="760" as="targetPoint" />
          </mxGeometry>
        </mxCell>
        <mxCell id="RdezbxoMDy9j4z05kCl0-3" value="" style="endArrow=none;dashed=1;html=1;rounded=0;" edge="1" parent="1">
          <mxGeometry width="50" height="50" relative="1" as="geometry">
            <mxPoint x="440" y="200" as="sourcePoint" />
            <mxPoint x="440" y="150" as="targetPoint" />
          </mxGeometry>
        </mxCell>
        <mxCell id="RdezbxoMDy9j4z05kCl0-4" value="" style="endArrow=none;dashed=1;html=1;rounded=0;" edge="1" parent="1">
          <mxGeometry width="50" height="50" relative="1" as="geometry">
            <mxPoint x="450" y="200" as="sourcePoint" />
            <mxPoint x="450" y="150" as="targetPoint" />
          </mxGeometry>
        </mxCell>
        <mxCell id="RdezbxoMDy9j4z05kCl0-5" value="" style="endArrow=none;dashed=1;html=1;rounded=0;" edge="1" parent="1">
          <mxGeometry width="50" height="50" relative="1" as="geometry">
            <mxPoint x="549.17" y="200" as="sourcePoint" />
            <mxPoint x="549.17" y="150" as="targetPoint" />
          </mxGeometry>
        </mxCell>
        <mxCell id="RdezbxoMDy9j4z05kCl0-6" value="" style="endArrow=none;dashed=1;html=1;rounded=0;" edge="1" parent="1">
          <mxGeometry width="50" height="50" relative="1" as="geometry">
            <mxPoint x="559.17" y="200" as="sourcePoint" />
            <mxPoint x="559.17" y="150" as="targetPoint" />
          </mxGeometry>
        </mxCell>
        <mxCell id="RdezbxoMDy9j4z05kCl0-8" value="&lt;h1&gt;&lt;font style=&quot;font-size: 20px;&quot; face=&quot;Neo Sans Pro Light&quot;&gt;Toilet&lt;/font&gt;&lt;/h1&gt;" style="text;html=1;strokeColor=none;fillColor=none;align=left;verticalAlign=middle;whiteSpace=wrap;rounded=0;fontFamily=Titillium;fontSource=https%3A%2F%2Ffonts.googleapis.com%2Fcss%3Ffamily%3DTitillium;fontSize=22;" vertex="1" parent="1">
          <mxGeometry x="453" y="231" width="80" height="20" as="geometry" />
        </mxCell>
        <mxCell id="RdezbxoMDy9j4z05kCl0-10" value="&lt;h1&gt;&lt;font style=&quot;font-size: 20px;&quot; face=&quot;Neo Sans Pro Light&quot;&gt;Trappe&lt;/font&gt;&lt;/h1&gt;" style="text;html=1;strokeColor=none;fillColor=none;align=left;verticalAlign=middle;whiteSpace=wrap;rounded=0;fontFamily=Titillium;fontSource=https%3A%2F%2Ffonts.googleapis.com%2Fcss%3Ffamily%3DTitillium;fontSize=22;" vertex="1" parent="1">
          <mxGeometry x="453" y="391" width="80" height="20" as="geometry" />
        </mxCell>
        <mxCell id="RdezbxoMDy9j4z05kCl0-11" value="&lt;h1&gt;&lt;font style=&quot;font-size: 20px;&quot; face=&quot;Neo Sans Pro Light&quot;&gt;Køkken&lt;/font&gt;&lt;/h1&gt;" style="text;html=1;strokeColor=none;fillColor=none;align=left;verticalAlign=middle;whiteSpace=wrap;rounded=0;fontFamily=Titillium;fontSource=https%3A%2F%2Ffonts.googleapis.com%2Fcss%3Ffamily%3DTitillium;fontSize=22;" vertex="1" parent="1">
          <mxGeometry x="453" y="551" width="80" height="20" as="geometry" />
        </mxCell>
        <mxCell id="RdezbxoMDy9j4z05kCl0-12" value="&lt;h1&gt;&lt;font style=&quot;font-size: 20px;&quot; face=&quot;Neo Sans Pro Light&quot;&gt;Arbejdsrum&lt;/font&gt;&lt;/h1&gt;" style="text;html=1;strokeColor=none;fillColor=none;align=left;verticalAlign=middle;whiteSpace=wrap;rounded=0;fontFamily=Titillium;fontSource=https%3A%2F%2Ffonts.googleapis.com%2Fcss%3Ffamily%3DTitillium;fontSize=22;" vertex="1" parent="1">
          <mxGeometry x="560" y="231" width="80" height="20" as="geometry" />
        </mxCell>
        <mxCell id="RdezbxoMDy9j4z05kCl0-13" value="&lt;h1&gt;&lt;font style=&quot;font-size: 20px;&quot; face=&quot;Neo Sans Pro Light&quot;&gt;Opholdsrum&lt;/font&gt;&lt;/h1&gt;" style="text;html=1;strokeColor=none;fillColor=none;align=left;verticalAlign=middle;whiteSpace=wrap;rounded=0;fontFamily=Titillium;fontSource=https%3A%2F%2Ffonts.googleapis.com%2Fcss%3Ffamily%3DTitillium;fontSize=22;" vertex="1" parent="1">
          <mxGeometry x="560" y="390" width="80" height="20" as="geometry" />
        </mxCell>
        <mxCell id="RdezbxoMDy9j4z05kCl0-14" value="&lt;h1&gt;&lt;font style=&quot;font-size: 20px;&quot; face=&quot;Neo Sans Pro Light&quot;&gt;Opholdsrum&lt;/font&gt;&lt;/h1&gt;" style="text;html=1;strokeColor=none;fillColor=none;align=left;verticalAlign=middle;whiteSpace=wrap;rounded=0;fontFamily=Titillium;fontSource=https%3A%2F%2Ffonts.googleapis.com%2Fcss%3Ffamily%3DTitillium;fontSize=22;" vertex="1" parent="1">
          <mxGeometry x="560" y="551" width="80" height="20" as="geometry" />
        </mxCell>
        <mxCell id="RdezbxoMDy9j4z05kCl0-18" value="" style="rounded=0;whiteSpace=wrap;html=1;dashed=1;" vertex="1" parent="1">
          <mxGeometry x="440" y="550" width="10" height="130" as="geometry" />
        </mxCell>
        <mxCell id="RdezbxoMDy9j4z05kCl0-22" style="edgeStyle=orthogonalEdgeStyle;rounded=0;orthogonalLoop=1;jettySize=auto;html=1;fontFamily=Titillium;fontSource=https%3A%2F%2Ffonts.googleapis.com%2Fcss%3Ffamily%3DTitillium;fontSize=12;endArrow=oval;endFill=1;" edge="1" parent="1" source="RdezbxoMDy9j4z05kCl0-21">
          <mxGeometry relative="1" as="geometry">
            <mxPoint x="750" y="279.9999999999999" as="targetPoint" />
          </mxGeometry>
        </mxCell>
        <mxCell id="RdezbxoMDy9j4z05kCl0-21" value="&lt;h1 style=&quot;font-size: 12px;&quot;&gt;&lt;font style=&quot;font-size: 12px;&quot; face=&quot;Neo Sans Pro Light&quot;&gt;Dagslys arbejdsrum min DA 300lux (bordhøjde/gulvhøjde)&lt;/font&gt;&lt;/h1&gt;" style="text;html=1;strokeColor=none;fillColor=none;align=right;verticalAlign=middle;whiteSpace=wrap;rounded=0;fontFamily=Titillium;fontSource=https%3A%2F%2Ffonts.googleapis.com%2Fcss%3Ffamily%3DTitillium;fontSize=12;" vertex="1" parent="1">
          <mxGeometry x="820" y="270" width="180" height="20" as="geometry" />
        </mxCell>
        <mxCell id="RdezbxoMDy9j4z05kCl0-23" style="edgeStyle=orthogonalEdgeStyle;rounded=0;orthogonalLoop=1;jettySize=auto;html=1;fontFamily=Titillium;fontSource=https%3A%2F%2Ffonts.googleapis.com%2Fcss%3Ffamily%3DTitillium;fontSize=12;endArrow=oval;endFill=1;" edge="1" parent="1" source="RdezbxoMDy9j4z05kCl0-24">
          <mxGeometry relative="1" as="geometry">
            <mxPoint x="750" y="446.2099999999999" as="targetPoint" />
          </mxGeometry>
        </mxCell>
        <mxCell id="RdezbxoMDy9j4z05kCl0-24" value="&lt;h1 style=&quot;border-color: var(--border-color); font-size: 12px;&quot;&gt;&lt;font style=&quot;border-color: var(--border-color);&quot; face=&quot;Neo Sans Pro Light&quot;&gt;Dagslys arbejdsrum min DA 300lux (bordhøjde/gulvhøjde)&lt;/font&gt;&lt;/h1&gt;" style="text;html=1;strokeColor=none;fillColor=none;align=right;verticalAlign=middle;whiteSpace=wrap;rounded=0;fontFamily=Titillium;fontSource=https%3A%2F%2Ffonts.googleapis.com%2Fcss%3Ffamily%3DTitillium;fontSize=12;" vertex="1" parent="1">
          <mxGeometry x="820" y="436.21" width="180" height="20" as="geometry" />
        </mxCell>
        <mxCell id="RdezbxoMDy9j4z05kCl0-27" style="edgeStyle=orthogonalEdgeStyle;rounded=0;orthogonalLoop=1;jettySize=auto;html=1;fontFamily=Titillium;fontSource=https%3A%2F%2Ffonts.googleapis.com%2Fcss%3Ffamily%3DTitillium;fontSize=12;endArrow=oval;endFill=1;" edge="1" parent="1" source="RdezbxoMDy9j4z05kCl0-25">
          <mxGeometry relative="1" as="geometry">
            <mxPoint x="650" y="339.9999999999999" as="targetPoint" />
          </mxGeometry>
        </mxCell>
        <mxCell id="RdezbxoMDy9j4z05kCl0-25" value="&lt;h1 style=&quot;font-size: 12px;&quot;&gt;&lt;font style=&quot;font-size: 12px;&quot; face=&quot;Neo Sans Pro Light&quot;&gt;Friskluft, maks 1000 PPM CO&lt;sub&gt;2&lt;/sub&gt;&lt;/font&gt;&lt;/h1&gt;" style="text;html=1;strokeColor=none;fillColor=none;align=right;verticalAlign=middle;whiteSpace=wrap;rounded=0;fontFamily=Titillium;fontSource=https%3A%2F%2Ffonts.googleapis.com%2Fcss%3Ffamily%3DTitillium;fontSize=12;" vertex="1" parent="1">
          <mxGeometry x="840" y="330" width="160" height="20" as="geometry" />
        </mxCell>
        <mxCell id="RdezbxoMDy9j4z05kCl0-28" style="edgeStyle=orthogonalEdgeStyle;rounded=0;orthogonalLoop=1;jettySize=auto;html=1;fontFamily=Titillium;fontSource=https%3A%2F%2Ffonts.googleapis.com%2Fcss%3Ffamily%3DTitillium;fontSize=12;endArrow=oval;endFill=1;" edge="1" parent="1" source="RdezbxoMDy9j4z05kCl0-29">
          <mxGeometry relative="1" as="geometry">
            <mxPoint x="650" y="510" as="targetPoint" />
          </mxGeometry>
        </mxCell>
        <mxCell id="RdezbxoMDy9j4z05kCl0-29" value="&lt;h1 style=&quot;font-size: 12px;&quot;&gt;&lt;font face=&quot;Neo Sans Pro Light&quot;&gt;Støj, akustik, §369, §374, §376&lt;br&gt;Lydisolation R&#39;&lt;sub&gt;w&lt;/sub&gt;: Tilstødende rum &amp;gt; 55dB&lt;br&gt;Døre til trapperum &amp;gt; 30dB&lt;br&gt;Trinlyd maks L&#39;&lt;sub&gt;n,w&lt;/sub&gt;&amp;nbsp;&amp;lt; 53dB&lt;br&gt;Støj fra omgiv. gennem facade &amp;lt; 33dB&lt;/font&gt;&lt;/h1&gt;" style="text;html=1;strokeColor=none;fillColor=none;align=right;verticalAlign=middle;whiteSpace=wrap;rounded=0;fontFamily=Titillium;fontSource=https%3A%2F%2Ffonts.googleapis.com%2Fcss%3Ffamily%3DTitillium;fontSize=12;" vertex="1" parent="1">
          <mxGeometry x="790" y="500" width="210" height="20" as="geometry" />
        </mxCell>
        <mxCell id="RdezbxoMDy9j4z05kCl0-31" style="edgeStyle=orthogonalEdgeStyle;rounded=0;orthogonalLoop=1;jettySize=auto;html=1;fontFamily=Titillium;fontSource=https%3A%2F%2Ffonts.googleapis.com%2Fcss%3Ffamily%3DTitillium;fontSize=12;endArrow=oval;endFill=1;" edge="1" parent="1" source="RdezbxoMDy9j4z05kCl0-30">
          <mxGeometry relative="1" as="geometry">
            <mxPoint x="290" y="170" as="targetPoint" />
          </mxGeometry>
        </mxCell>
        <mxCell id="RdezbxoMDy9j4z05kCl0-30" value="&lt;h1 style=&quot;font-size: 12px;&quot;&gt;&lt;font face=&quot;Neo Sans Pro Light&quot;&gt;Forberedt til flere etager&lt;/font&gt;&lt;/h1&gt;" style="text;html=1;strokeColor=none;fillColor=none;align=left;verticalAlign=middle;whiteSpace=wrap;rounded=0;fontFamily=Titillium;fontSource=https%3A%2F%2Ffonts.googleapis.com%2Fcss%3Ffamily%3DTitillium;fontSize=12;" vertex="1" parent="1">
          <mxGeometry x="103" y="160" width="130" height="20" as="geometry" />
        </mxCell>
        <mxCell id="RdezbxoMDy9j4z05kCl0-37" style="edgeStyle=orthogonalEdgeStyle;rounded=0;orthogonalLoop=1;jettySize=auto;html=1;fontFamily=Titillium;fontSource=https%3A%2F%2Ffonts.googleapis.com%2Fcss%3Ffamily%3DTitillium;fontSize=12;endArrow=oval;endFill=1;" edge="1" parent="1" source="RdezbxoMDy9j4z05kCl0-32">
          <mxGeometry relative="1" as="geometry">
            <mxPoint x="290" y="790" as="targetPoint" />
          </mxGeometry>
        </mxCell>
        <mxCell id="RdezbxoMDy9j4z05kCl0-32" value="&lt;h1 style=&quot;font-size: 12px;&quot;&gt;&lt;font face=&quot;Neo Sans Pro Light&quot;&gt;Forberedt til større laster&lt;/font&gt;&lt;/h1&gt;" style="text;html=1;strokeColor=none;fillColor=none;align=left;verticalAlign=middle;whiteSpace=wrap;rounded=0;fontFamily=Titillium;fontSource=https%3A%2F%2Ffonts.googleapis.com%2Fcss%3Ffamily%3DTitillium;fontSize=12;" vertex="1" parent="1">
          <mxGeometry x="103" y="780" width="120" height="20" as="geometry" />
        </mxCell>
        <mxCell id="RdezbxoMDy9j4z05kCl0-33" value="" style="endArrow=none;dashed=1;html=1;rounded=0;" edge="1" parent="1">
          <mxGeometry width="50" height="50" relative="1" as="geometry">
            <mxPoint x="289.86" y="810" as="sourcePoint" />
            <mxPoint x="289.86" y="760" as="targetPoint" />
          </mxGeometry>
        </mxCell>
        <mxCell id="RdezbxoMDy9j4z05kCl0-34" value="" style="endArrow=none;dashed=1;html=1;rounded=0;" edge="1" parent="1">
          <mxGeometry width="50" height="50" relative="1" as="geometry">
            <mxPoint x="319.17" y="810" as="sourcePoint" />
            <mxPoint x="319.17" y="760" as="targetPoint" />
          </mxGeometry>
        </mxCell>
        <mxCell id="RdezbxoMDy9j4z05kCl0-35" value="" style="endArrow=none;dashed=1;html=1;rounded=0;" edge="1" parent="1">
          <mxGeometry width="50" height="50" relative="1" as="geometry">
            <mxPoint x="719.1699999999998" y="810" as="sourcePoint" />
            <mxPoint x="719.1699999999998" y="760" as="targetPoint" />
          </mxGeometry>
        </mxCell>
        <mxCell id="RdezbxoMDy9j4z05kCl0-36" value="" style="endArrow=none;dashed=1;html=1;rounded=0;" edge="1" parent="1">
          <mxGeometry width="50" height="50" relative="1" as="geometry">
            <mxPoint x="749.1699999999998" y="810" as="sourcePoint" />
            <mxPoint x="749.1699999999998" y="760" as="targetPoint" />
          </mxGeometry>
        </mxCell>
        <mxCell id="RdezbxoMDy9j4z05kCl0-41" style="edgeStyle=orthogonalEdgeStyle;rounded=0;orthogonalLoop=1;jettySize=auto;html=1;entryX=-0.167;entryY=0.844;entryDx=0;entryDy=0;entryPerimeter=0;fontFamily=Titillium;fontSource=https%3A%2F%2Ffonts.googleapis.com%2Fcss%3Ffamily%3DTitillium;fontSize=12;endArrow=oval;endFill=1;" edge="1" parent="1" source="RdezbxoMDy9j4z05kCl0-40" target="d_FhcBHTKEOxw95VG2s4-7">
          <mxGeometry relative="1" as="geometry" />
        </mxCell>
        <mxCell id="RdezbxoMDy9j4z05kCl0-40" value="&lt;h1 style=&quot;font-size: 12px;&quot;&gt;&lt;font style=&quot;font-size: 12px;&quot; face=&quot;Neo Sans Pro Light&quot;&gt;Bærende&amp;nbsp; indervægge ikke tilladt&lt;/font&gt;&lt;/h1&gt;" style="text;html=1;strokeColor=none;fillColor=none;align=left;verticalAlign=middle;whiteSpace=wrap;rounded=0;fontFamily=Titillium;fontSource=https%3A%2F%2Ffonts.googleapis.com%2Fcss%3Ffamily%3DTitillium;fontSize=12;" vertex="1" parent="1">
          <mxGeometry x="103" y="330" width="117" height="20" as="geometry" />
        </mxCell>
        <mxCell id="RdezbxoMDy9j4z05kCl0-45" style="edgeStyle=orthogonalEdgeStyle;rounded=0;orthogonalLoop=1;jettySize=auto;html=1;fontFamily=Titillium;fontSource=https%3A%2F%2Ffonts.googleapis.com%2Fcss%3Ffamily%3DTitillium;fontSize=12;endArrow=oval;endFill=1;" edge="1" parent="1" source="RdezbxoMDy9j4z05kCl0-42">
          <mxGeometry relative="1" as="geometry">
            <mxPoint x="510" y="219.9999999999999" as="targetPoint" />
          </mxGeometry>
        </mxCell>
        <mxCell id="RdezbxoMDy9j4z05kCl0-42" value="&lt;h1 style=&quot;font-size: 12px;&quot;&gt;&lt;p style=&quot;line-height: 107%; margin-top: 0pt; margin-bottom: 8pt; margin-left: 0in; direction: ltr; unicode-bidi: embed; word-break: normal;&quot;&gt;&lt;span style=&quot;font-family: &amp;quot;Neo Sans Pro Light&amp;quot;; font-weight: normal;&quot;&gt;Bygningsdybde (ydervæg&lt;br&gt;til ydervæg) min 11.5m&lt;/span&gt;&lt;/p&gt;&lt;/h1&gt;" style="text;html=1;strokeColor=none;fillColor=none;align=right;verticalAlign=middle;whiteSpace=wrap;rounded=0;fontFamily=Titillium;fontSource=https%3A%2F%2Ffonts.googleapis.com%2Fcss%3Ffamily%3DTitillium;fontSize=12;" vertex="1" parent="1">
          <mxGeometry x="850" y="160" width="150" height="20" as="geometry" />
        </mxCell>
        <mxCell id="RdezbxoMDy9j4z05kCl0-44" value="" style="endArrow=open;startArrow=open;html=1;rounded=0;fontFamily=Titillium;fontSource=https%3A%2F%2Ffonts.googleapis.com%2Fcss%3Ffamily%3DTitillium;fontSize=12;endFill=0;startFill=0;" edge="1" parent="1">
          <mxGeometry width="50" height="50" relative="1" as="geometry">
            <mxPoint x="290" y="220" as="sourcePoint" />
            <mxPoint x="750" y="220" as="targetPoint" />
          </mxGeometry>
        </mxCell>
        <mxCell id="RdezbxoMDy9j4z05kCl0-46" value="" style="endArrow=open;startArrow=open;html=1;rounded=0;fontFamily=Titillium;fontSource=https%3A%2F%2Ffonts.googleapis.com%2Fcss%3Ffamily%3DTitillium;fontSize=12;endFill=0;startFill=0;" edge="1" parent="1">
          <mxGeometry width="50" height="50" relative="1" as="geometry">
            <mxPoint x="560" y="670" as="sourcePoint" />
            <mxPoint x="750" y="670" as="targetPoint" />
          </mxGeometry>
        </mxCell>
        <mxCell id="RdezbxoMDy9j4z05kCl0-64" style="edgeStyle=orthogonalEdgeStyle;rounded=0;orthogonalLoop=1;jettySize=auto;html=1;fontFamily=Titillium;fontSource=https%3A%2F%2Ffonts.googleapis.com%2Fcss%3Ffamily%3DTitillium;fontSize=12;startArrow=none;startFill=0;endArrow=oval;endFill=1;" edge="1" parent="1" source="RdezbxoMDy9j4z05kCl0-47">
          <mxGeometry relative="1" as="geometry">
            <mxPoint x="640" y="670" as="targetPoint" />
          </mxGeometry>
        </mxCell>
        <mxCell id="RdezbxoMDy9j4z05kCl0-47" value="&lt;h1 style=&quot;font-size: 12px;&quot;&gt;&lt;p style=&quot;line-height: 107%; margin-top: 0pt; margin-bottom: 8pt; margin-left: 0in; direction: ltr; unicode-bidi: embed; word-break: normal;&quot;&gt;&lt;span style=&quot;font-family: &amp;quot;Neo Sans Pro Light&amp;quot;; font-weight: normal;&quot;&gt;Rumdybde (ydervæg&lt;br&gt;til kerne) min 5.75m&lt;/span&gt;&lt;/p&gt;&lt;/h1&gt;" style="text;html=1;strokeColor=none;fillColor=none;align=right;verticalAlign=middle;whiteSpace=wrap;rounded=0;fontFamily=Titillium;fontSource=https%3A%2F%2Ffonts.googleapis.com%2Fcss%3Ffamily%3DTitillium;fontSize=12;" vertex="1" parent="1">
          <mxGeometry x="880" y="625" width="120" height="20" as="geometry" />
        </mxCell>
        <mxCell id="RdezbxoMDy9j4z05kCl0-55" style="edgeStyle=orthogonalEdgeStyle;rounded=0;orthogonalLoop=1;jettySize=auto;html=1;fontFamily=Titillium;fontSource=https%3A%2F%2Ffonts.googleapis.com%2Fcss%3Ffamily%3DTitillium;fontSize=12;startArrow=none;startFill=0;endArrow=oval;endFill=1;" edge="1" parent="1" source="RdezbxoMDy9j4z05kCl0-50">
          <mxGeometry relative="1" as="geometry">
            <mxPoint x="380" y="455" as="targetPoint" />
          </mxGeometry>
        </mxCell>
        <mxCell id="RdezbxoMDy9j4z05kCl0-50" value="&lt;h1 style=&quot;font-size: 12px;&quot;&gt;&lt;font style=&quot;font-size: 12px;&quot; face=&quot;Neo Sans Pro Light&quot;&gt;Arealudnyttelse kontor &amp;gt; 0.48 bolig &amp;gt; 0.60&lt;/font&gt;&lt;/h1&gt;" style="text;html=1;strokeColor=none;fillColor=none;align=left;verticalAlign=middle;whiteSpace=wrap;rounded=0;fontFamily=Titillium;fontSource=https%3A%2F%2Ffonts.googleapis.com%2Fcss%3Ffamily%3DTitillium;fontSize=12;" vertex="1" parent="1">
          <mxGeometry x="103" y="445" width="117" height="20" as="geometry" />
        </mxCell>
        <mxCell id="RdezbxoMDy9j4z05kCl0-54" style="edgeStyle=orthogonalEdgeStyle;rounded=0;orthogonalLoop=1;jettySize=auto;html=1;fontFamily=Titillium;fontSource=https%3A%2F%2Ffonts.googleapis.com%2Fcss%3Ffamily%3DTitillium;fontSize=12;startArrow=none;startFill=0;endArrow=oval;endFill=1;" edge="1" parent="1" source="RdezbxoMDy9j4z05kCl0-53">
          <mxGeometry relative="1" as="geometry">
            <mxPoint x="380" y="500" as="targetPoint" />
          </mxGeometry>
        </mxCell>
        <mxCell id="RdezbxoMDy9j4z05kCl0-53" value="&lt;h1 style=&quot;font-size: 12px;&quot;&gt;&lt;font style=&quot;font-size: 12px;&quot; face=&quot;Neo Sans Pro Light&quot;&gt;Nyttelaster min 2.5 kN/m&lt;sup&gt;2&lt;/sup&gt;&lt;/font&gt;&lt;/h1&gt;" style="text;html=1;strokeColor=none;fillColor=none;align=left;verticalAlign=middle;whiteSpace=wrap;rounded=0;fontFamily=Titillium;fontSource=https%3A%2F%2Ffonts.googleapis.com%2Fcss%3Ffamily%3DTitillium;fontSize=12;" vertex="1" parent="1">
          <mxGeometry x="103" y="490" width="147" height="20" as="geometry" />
        </mxCell>
        <mxCell id="RdezbxoMDy9j4z05kCl0-58" style="edgeStyle=orthogonalEdgeStyle;rounded=0;orthogonalLoop=1;jettySize=auto;html=1;fontFamily=Titillium;fontSource=https%3A%2F%2Ffonts.googleapis.com%2Fcss%3Ffamily%3DTitillium;fontSize=12;endArrow=oval;endFill=1;" edge="1" parent="1" source="RdezbxoMDy9j4z05kCl0-59">
          <mxGeometry relative="1" as="geometry">
            <mxPoint x="380" y="280" as="targetPoint" />
          </mxGeometry>
        </mxCell>
        <mxCell id="RdezbxoMDy9j4z05kCl0-59" value="&lt;h1 style=&quot;font-size: 12px;&quot;&gt;&lt;font style=&quot;font-size: 12px;&quot; face=&quot;Neo Sans Pro Light&quot;&gt;Maks overskridelse af operative temp, sommer (26/27C), vinter (18) &amp;lt; 5% DS469. §387&lt;/font&gt;&lt;/h1&gt;" style="text;html=1;strokeColor=none;fillColor=none;align=left;verticalAlign=middle;whiteSpace=wrap;rounded=0;fontFamily=Titillium;fontSource=https%3A%2F%2Ffonts.googleapis.com%2Fcss%3Ffamily%3DTitillium;fontSize=12;" vertex="1" parent="1">
          <mxGeometry x="103" y="270" width="140" height="20" as="geometry" />
        </mxCell>
        <mxCell id="RdezbxoMDy9j4z05kCl0-62" style="edgeStyle=orthogonalEdgeStyle;rounded=0;orthogonalLoop=1;jettySize=auto;html=1;fontFamily=Titillium;fontSource=https%3A%2F%2Ffonts.googleapis.com%2Fcss%3Ffamily%3DTitillium;fontSize=12;startArrow=none;startFill=0;endArrow=oval;endFill=1;" edge="1" parent="1" source="RdezbxoMDy9j4z05kCl0-60">
          <mxGeometry relative="1" as="geometry">
            <mxPoint x="360" y="602.5" as="targetPoint" />
          </mxGeometry>
        </mxCell>
        <mxCell id="RdezbxoMDy9j4z05kCl0-60" value="&lt;h1 style=&quot;font-size: 12px;&quot;&gt;&lt;font face=&quot;Neo Sans Pro Light&quot;&gt;Etagehøjde min 3.0 m&lt;/font&gt;&lt;/h1&gt;" style="text;html=1;strokeColor=none;fillColor=none;align=left;verticalAlign=middle;whiteSpace=wrap;rounded=0;fontFamily=Titillium;fontSource=https%3A%2F%2Ffonts.googleapis.com%2Fcss%3Ffamily%3DTitillium;fontSize=12;" vertex="1" parent="1">
          <mxGeometry x="103" y="592.5" width="147" height="20" as="geometry" />
        </mxCell>
        <mxCell id="RdezbxoMDy9j4z05kCl0-61" value="" style="endArrow=open;startArrow=open;html=1;rounded=0;fontFamily=Titillium;fontSource=https%3A%2F%2Ffonts.googleapis.com%2Fcss%3Ffamily%3DTitillium;fontSize=12;endFill=0;startFill=0;exitX=0.102;exitY=0.989;exitDx=0;exitDy=0;exitPerimeter=0;" edge="1" parent="1" source="d_FhcBHTKEOxw95VG2s4-5">
          <mxGeometry width="50" height="50" relative="1" as="geometry">
            <mxPoint x="310" y="612.5" as="sourcePoint" />
            <mxPoint x="361" y="680" as="targetPoint" />
          </mxGeometry>
        </mxCell>
        <mxCell id="RdezbxoMDy9j4z05kCl0-66" style="edgeStyle=orthogonalEdgeStyle;rounded=0;orthogonalLoop=1;jettySize=auto;html=1;fontFamily=Titillium;fontSource=https%3A%2F%2Ffonts.googleapis.com%2Fcss%3Ffamily%3DTitillium;fontSize=12;endArrow=oval;endFill=1;" edge="1" parent="1" source="RdezbxoMDy9j4z05kCl0-67">
          <mxGeometry relative="1" as="geometry">
            <mxPoint x="380" y="410" as="targetPoint" />
          </mxGeometry>
        </mxCell>
        <mxCell id="RdezbxoMDy9j4z05kCl0-67" value="&lt;h1 style=&quot;font-size: 12px;&quot;&gt;&lt;font style=&quot;font-size: 12px;&quot; face=&quot;Neo Sans Pro Light&quot;&gt;Relativ fugtighed&amp;nbsp; §386 25%&amp;lt;RH&amp;lt;50%, DS447&lt;/font&gt;&lt;/h1&gt;" style="text;html=1;strokeColor=none;fillColor=none;align=left;verticalAlign=middle;whiteSpace=wrap;rounded=0;fontFamily=Titillium;fontSource=https%3A%2F%2Ffonts.googleapis.com%2Fcss%3Ffamily%3DTitillium;fontSize=12;" vertex="1" parent="1">
          <mxGeometry x="105" y="400" width="125" height="20" as="geometry" />
        </mxCell>
        <mxCell id="RdezbxoMDy9j4z05kCl0-68" style="edgeStyle=orthogonalEdgeStyle;rounded=0;orthogonalLoop=1;jettySize=auto;html=1;fontFamily=Titillium;fontSource=https%3A%2F%2Ffonts.googleapis.com%2Fcss%3Ffamily%3DTitillium;fontSize=12;endArrow=oval;endFill=1;" edge="1" parent="1" source="RdezbxoMDy9j4z05kCl0-69">
          <mxGeometry relative="1" as="geometry">
            <mxPoint x="680" y="610" as="targetPoint" />
          </mxGeometry>
        </mxCell>
        <mxCell id="RdezbxoMDy9j4z05kCl0-69" value="&lt;h1 style=&quot;font-size: 12px;&quot;&gt;&lt;font style=&quot;font-size: 12px;&quot; face=&quot;Neo Sans Pro Light&quot;&gt;Friskluft, maks 1000 PPM CO&lt;sub&gt;2&lt;/sub&gt;&lt;/font&gt;&lt;/h1&gt;" style="text;html=1;strokeColor=none;fillColor=none;align=right;verticalAlign=middle;whiteSpace=wrap;rounded=0;fontFamily=Titillium;fontSource=https%3A%2F%2Ffonts.googleapis.com%2Fcss%3Ffamily%3DTitillium;fontSize=12;" vertex="1" parent="1">
          <mxGeometry x="845" y="600" width="160" height="20" as="geometry" />
        </mxCell>
        <mxCell id="RdezbxoMDy9j4z05kCl0-71" style="edgeStyle=orthogonalEdgeStyle;rounded=0;orthogonalLoop=1;jettySize=auto;html=1;fontFamily=Titillium;fontSource=https%3A%2F%2Ffonts.googleapis.com%2Fcss%3Ffamily%3DTitillium;fontSize=12;endArrow=oval;endFill=1;" edge="1" parent="1" source="RdezbxoMDy9j4z05kCl0-72">
          <mxGeometry relative="1" as="geometry">
            <mxPoint x="530" y="460" as="targetPoint" />
          </mxGeometry>
        </mxCell>
        <mxCell id="RdezbxoMDy9j4z05kCl0-72" value="&lt;h1 style=&quot;border-color: var(--border-color); font-size: 12px;&quot;&gt;&lt;font style=&quot;border-color: var(--border-color);&quot; face=&quot;Neo Sans Pro Light&quot;&gt;Afstand til brandtrappe maks 30 m&lt;/font&gt;&lt;/h1&gt;" style="text;html=1;strokeColor=none;fillColor=none;align=right;verticalAlign=middle;whiteSpace=wrap;rounded=0;fontFamily=Titillium;fontSource=https%3A%2F%2Ffonts.googleapis.com%2Fcss%3Ffamily%3DTitillium;fontSize=12;" vertex="1" parent="1">
          <mxGeometry x="820" y="365" width="180" height="20" as="geometry" />
        </mxCell>
        <mxCell id="RdezbxoMDy9j4z05kCl0-76" style="edgeStyle=orthogonalEdgeStyle;rounded=0;orthogonalLoop=1;jettySize=auto;html=1;strokeWidth=1;fontFamily=Titillium;fontSource=https%3A%2F%2Ffonts.googleapis.com%2Fcss%3Ffamily%3DTitillium;fontSize=12;startArrow=none;startFill=0;endArrow=oval;endFill=1;" edge="1" parent="1" source="RdezbxoMDy9j4z05kCl0-73">
          <mxGeometry relative="1" as="geometry">
            <mxPoint x="679.9999999999998" y="279.9999999999999" as="targetPoint" />
          </mxGeometry>
        </mxCell>
        <mxCell id="RdezbxoMDy9j4z05kCl0-73" value="&lt;h1 style=&quot;font-size: 12px;&quot;&gt;&lt;p style=&quot;line-height: 107%; margin-top: 0pt; margin-bottom: 8pt; margin-left: 0in; direction: ltr; unicode-bidi: embed; word-break: normal;&quot;&gt;&lt;font face=&quot;Neo Sans Pro Light&quot;&gt;&lt;span style=&quot;font-weight: 400;&quot;&gt;Energiramme svarende til lavenergiramme &amp;lt; 33 kWh m&lt;sup&gt;2&lt;/sup&gt; år&lt;/span&gt;&lt;/font&gt;&lt;/p&gt;&lt;/h1&gt;" style="text;html=1;strokeColor=none;fillColor=none;align=right;verticalAlign=middle;whiteSpace=wrap;rounded=0;fontFamily=Titillium;fontSource=https%3A%2F%2Ffonts.googleapis.com%2Fcss%3Ffamily%3DTitillium;fontSize=12;" vertex="1" parent="1">
          <mxGeometry x="830" y="220" width="170" height="20" as="geometry" />
        </mxCell>
        <mxCell id="RdezbxoMDy9j4z05kCl0-77" style="edgeStyle=orthogonalEdgeStyle;rounded=0;orthogonalLoop=1;jettySize=auto;html=1;fontFamily=Titillium;fontSource=https%3A%2F%2Ffonts.googleapis.com%2Fcss%3Ffamily%3DTitillium;fontSize=12;startArrow=none;startFill=0;endArrow=oval;endFill=1;" edge="1" parent="1" source="RdezbxoMDy9j4z05kCl0-78">
          <mxGeometry relative="1" as="geometry">
            <mxPoint x="290" y="590" as="targetPoint" />
            <Array as="points">
              <mxPoint x="270" y="561" />
              <mxPoint x="270" y="590" />
            </Array>
          </mxGeometry>
        </mxCell>
        <mxCell id="RdezbxoMDy9j4z05kCl0-78" value="&lt;h1 style=&quot;font-size: 12px;&quot;&gt;&lt;font face=&quot;Neo Sans Pro Light&quot;&gt;Naturlig ventilation&lt;/font&gt;&lt;/h1&gt;" style="text;html=1;strokeColor=none;fillColor=none;align=left;verticalAlign=middle;whiteSpace=wrap;rounded=0;fontFamily=Titillium;fontSource=https%3A%2F%2Ffonts.googleapis.com%2Fcss%3Ffamily%3DTitillium;fontSize=12;" vertex="1" parent="1">
          <mxGeometry x="105" y="551" width="115" height="20" as="geometry" />
        </mxCell>
      </root>
    </mxGraphModel>
  </diagram>
</mxfile>
